<?xml version="1.0" encoding="utf-8"?>
<!-- Generator: Adobe Illustrator 25.0.0, SVG Export Plug-In . SVG Version: 6.00 Build 0)  -->
<svg version="1.1" id="Layer_1" xmlns="http://www.w3.org/2000/svg" xmlns:xlink="http://www.w3.org/1999/xlink" x="0px" y="0px"
	 viewBox="0 0 323.9 87.5" style="enable-background:new 0 0 323.9 87.5;" xml:space="preserve">
<style type="text/css">
	.st0{fill:#FFFFFF;}
</style>
<path class="st0" d="M73.8,13.2c20.2,1.6,37.2,9.1,45.6,19.3h2C112.7,21.1,94.1,12.8,72,11.4C72.7,11.9,73.3,12.5,73.8,13.2
	L73.8,13.2z"/>
<path class="st0" d="M58.8,11.5c-21.9,1.4-40.3,9.7-48.9,21.1h2C20.2,22.4,37.1,15,57.2,13.3C57.6,12.6,58.2,12,58.8,11.5L58.8,11.5
	z"/>
<polygon class="st0" points="69.4,42 71.5,42 71.5,45.1 69.4,45.1 "/>
<polygon class="st0" points="63.6,42 65.7,42 65.7,45.1 63.6,45.1 "/>
<polygon class="st0" points="58,42 60.1,42 60.1,45.1 58,45.1 "/>
<polygon class="st0" points="52.5,42 54.6,42 54.6,45.1 52.5,45.1 "/>
<polygon class="st0" points="75.2,42 77.3,42 77.3,45.1 75.2,45.1 "/>
<polygon class="st0" points="81,42 83,42 83,45.1 81,45.1 "/>
<polygon class="st0" points="86.6,42 88.7,42 88.7,45.1 86.6,45.1 "/>
<path class="st0" d="M64.6,29.9c0,0.9,0.8,1.7,1.7,1.7c0.9,0,1.7-0.8,1.7-1.7c0-0.9-0.8-1.7-1.7-1.7l0,0
	C65.4,28.2,64.6,28.9,64.6,29.9C64.6,29.9,64.6,29.9,64.6,29.9L64.6,29.9z"/>
<polygon class="st0" points="69.4,47.2 71.5,47.2 71.5,50.3 69.4,50.3 "/>
<polygon class="st0" points="63.6,47.2 65.7,47.2 65.7,50.3 63.6,50.3 "/>
<polygon class="st0" points="58,47.2 60.1,47.2 60.1,50.3 58,50.3 "/>
<polygon class="st0" points="52.5,47.2 54.6,47.2 54.6,50.3 52.5,50.3 "/>
<polygon class="st0" points="75.2,47.2 77.3,47.2 77.3,50.3 75.2,50.3 "/>
<polygon class="st0" points="81,47.2 83,47.2 83,50.3 81,50.3 "/>
<polygon class="st0" points="86.6,47.2 88.7,47.2 88.7,50.3 86.6,50.3 "/>
<polygon class="st0" points="63.6,52.5 65.7,52.5 65.7,55.6 63.6,55.6 "/>
<polygon class="st0" points="58,52.5 60.1,52.5 60.1,55.6 58,55.6 "/>
<polygon class="st0" points="52.5,52.5 54.6,52.5 54.6,55.6 52.5,55.6 "/>
<polygon class="st0" points="75.2,52.5 77.3,52.5 77.3,55.6 75.2,55.6 "/>
<polygon class="st0" points="81,52.5 83,52.5 83,55.6 81,55.6 "/>
<polygon class="st0" points="86.6,52.5 88.7,52.5 88.7,55.6 86.6,55.6 "/>
<path class="st0" d="M66.7,12L65.6,0l-0.9,11.9c-2.1,0.3-3.7,2.1-3.9,4.2l3.1-0.9h3.8l2.4,0.9C69.8,14.2,68.5,12.6,66.7,12L66.7,12z
	"/>
<polygon class="st0" points="19.3,48.8 20.9,48.8 20.9,51.4 19.3,51.4 "/>
<polygon class="st0" points="23.6,48.8 25.2,48.8 25.2,51.4 23.6,51.4 "/>
<polygon class="st0" points="27.7,48.8 29.4,48.8 29.4,51.4 27.7,51.4 "/>
<polygon class="st0" points="19.3,44.1 20.9,44.1 20.9,46.7 19.3,46.7 "/>
<polygon class="st0" points="23.6,44.1 25.2,44.1 25.2,46.7 23.6,46.7 "/>
<polygon class="st0" points="27.7,44.1 29.4,44.1 29.4,46.7 27.7,46.7 "/>
<polygon class="st0" points="19.3,53.6 20.9,53.6 20.9,56.2 19.3,56.2 "/>
<polygon class="st0" points="27.7,53.6 29.4,53.6 29.4,56.2 27.7,56.2 "/>
<path class="st0" d="M23.4,41.3L23.4,41.3z"/>
<path class="st0" d="M25.2,41.2c0-0.5-0.4-0.9-0.9-0.9c-0.5,0-0.9,0.4-0.9,0.9v1.1h1.7L25.2,41.2C25.2,41.2,25.2,41.2,25.2,41.2z"/>
<polygon class="st0" points="116,48.8 117.6,48.8 117.6,51.4 116,51.4 "/>
<polygon class="st0" points="120.2,48.8 121.8,48.8 121.8,51.4 120.2,51.4 "/>
<polygon class="st0" points="124.4,48.8 126,48.8 126,51.4 124.4,51.4 "/>
<polygon class="st0" points="116,44.1 117.6,44.1 117.6,46.7 116,46.7 "/>
<polygon class="st0" points="120.2,44.1 121.8,44.1 121.8,46.7 120.2,46.7 "/>
<polygon class="st0" points="124.4,44.1 126,44.1 126,46.7 124.4,46.7 "/>
<polygon class="st0" points="116,53.6 117.6,53.6 117.6,56.2 116,56.2 "/>
<polygon class="st0" points="124.4,53.6 126,53.6 126,56.2 124.4,56.2 "/>
<path class="st0" d="M120.1,41.3L120.1,41.3C120,41.3,120.1,41.4,120.1,41.3L120.1,41.3z"/>
<path class="st0" d="M121.9,41.2c0-0.5-0.4-0.9-0.9-0.9s-0.9,0.4-0.9,0.9v1.1h1.7v-1.1C121.8,41.2,121.9,41.2,121.9,41.2z"/>
<path class="st0" d="M91.1,73.1H93v-1.5h1.1v-1.4H93v-4.8h-2.2L87.7,70v1.6h3.4V73.1L91.1,73.1z M74,73.2c2.5,0,3-2,3-3.9
	s-0.4-3.9-3-3.9s-3,2-3,3.9S71.5,73.2,74,73.2L74,73.2z M40,73.1h2v-7.6h-1.8l-2.6,1.7l0.9,1.4l1.4-1L40,73.1L40,73.1z M54.4,67.5
	c0,0.8,0.6,1.4,1.3,1.6c-0.9,0.2-1.5,1-1.5,1.9c0,1.6,1.3,2.2,3,2.2s3-0.6,3-2.3c0-0.9-0.6-1.7-1.5-1.9c0.8-0.2,1.3-1,1.3-1.8
	c0-1.3-1.1-2-2.6-2C55.7,65.3,54.4,65.9,54.4,67.5L54.4,67.5z M129.7,41.7h-3v-2.5h-2.8v-1.8h-5.7v1.8h-2.8v2.4h-2.6v17.9h7v-4.7
	h2.5v4.7h7.1V61h-8.8c-9.5,11.2-31.5,20.6-55.9,20.6S20.5,72.2,11,61H0V41.6h2.7v-3h3.1v-2.5h23.4v2H32v2.5h1v1h-3v-2.5h-2.8v-1.8
	h-5.7v1.8h-2.8v2.4h-2.6v17.9h7v-4.7h2.5v4.7h10.6V39.3l-0.7-0.7l6.3-6.3h18.1v-5.8h-0.6v-0.6l0.8-0.8H61v-6.4l-0.8-0.2L60,17.9
	l2.9-0.8v8.3h1.6v-8.5h2.7v8.5h1.6v-8.3l2,0.8l-0.2,0.5l-0.8,0.2v6.8h0.7l0.6,0.7v0.6h-8.8v7.7h8.2v-1.9h16.1l6.3,6.3l-0.7,0.7H48.6
	v20.1h20v-4.7c0.2-0.9,1.1-1.6,2-1.4c0.7,0.1,1.2,0.7,1.4,1.4v4.7h24.6V41.7h2.8v-3h3.1v-2.5h23.4v2.1h2.8v2.5h1L129.7,41.7
	L129.7,41.7L129.7,41.7z M65.8,18.3c-0.4,0-0.8,0.4-0.8,0.8s0.4,0.8,0.8,0.8s0.8-0.4,0.8-0.8C66.6,18.7,66.3,18.3,65.8,18.3
	C65.8,18.3,65.8,18.3,65.8,18.3L65.8,18.3z M91.2,70.2h-2.1l2.1-3.2V70.2L91.2,70.2z M74,71.8c-0.9,0-1-1.4-1-2.6s0.1-2.6,1-2.6
	s1,1.4,1,2.6S74.9,71.8,74,71.8L74,71.8z M58.1,70.8c0,0.6-0.4,1-1,1c-0.5,0-0.9-0.4-1-0.9c0-0.6,0.4-1,1-1.1
	C57.6,69.8,58.1,70.2,58.1,70.8L58.1,70.8z M56.2,67.5c0-0.5,0.4-0.9,0.9-0.9h0c0.5,0,0.9,0.3,0.9,0.8c0,0.5-0.4,1-0.9,1.1
	C56.6,68.4,56.3,68,56.2,67.5L56.2,67.5z"/>
<path class="st0" d="M250.6,73.2v5.4c1.8-0.1,3.5-0.9,3.5-3C254.1,73.7,252.3,73.2,250.6,73.2L250.6,73.2z M254.8,83.7
	c-0.7-1-1.3-2-1.6-2.5c-0.9-1.7-0.8-1.6-2.6-1.9v1.9c0,2.6-0.1,3.5,3,3.7v0.5h-8v-0.5c2.3-0.4,2.5-0.2,2.5-3.7v-5.1
	c0-2.6-0.1-2.9-2.5-3.1v-0.5h5.9c2.3,0,5.5,0,5.5,3c-0.1,1.5-1.1,2.7-2.5,3.1l2,3.7c1.6,2.6,4.3,4.3,7.4,4.4h0.9
	C261.2,87.9,257.2,86.7,254.8,83.7L254.8,83.7L254.8,83.7z"/>
<path class="st0" d="M164.7,73c1.8,0.4,2.7,0.2,2.8,2.3l0.1,4.6c0.1,2.4-0.4,4.6-3.5,4.6c-1.4,0.1-2.7-0.5-3.6-1.6
	c-0.5-1.1-0.7-2.4-0.6-3.6v-2.7c0-2.6-0.1-3.5,2.5-3.7v-0.5h-7.5v0.5c2.3,0.4,2.5,0.2,2.5,3.7v3c0,1.6-0.2,3.4,1.1,4.6
	c1.3,1,2.8,1.5,4.4,1.4c1.6,0.1,3.2-0.5,4.4-1.6c1.1-1.1,1.1-2.9,1.2-4.4l0.1-2.9c0.2-3.2,0.2-3.5,2-3.9h0.8l0.1-0.5h-6.8V73
	L164.7,73z"/>
<path class="st0" d="M177.4,82.1c0,2.6-1,2.5-2.3,2.8v0.5h6.2v-0.5c-2.2-0.5-2.7-0.6-2.7-3c-0.1-2.1-0.2-4.1-0.1-6.2
	c3.1,3.4,10.4,11.8,10.4,11.8V77.1c0-3.1,0.1-3.9,1.8-4.1v-0.5h-5.8V73c2.2,0.3,2.8,0.6,2.9,2.9l0.1,6.1l0,0
	c-2.7-3.2-6.1-6.4-8.5-9.5H175V73c2.4,0.4,2.5,1.8,2.5,3.8v5.3C177.5,82.1,177.4,82.1,177.4,82.1z"/>
<path class="st0" d="M201.8,76.6c0-3.4,0.2-3.3,2.5-3.7v-0.5h-7.5v0.5c2.3,0.4,2.5,0.2,2.5,3.7v4.5c0,3.4-0.2,3.3-2.5,3.7v0.5h7.5
	v-0.5c-2.3-0.4-2.5-0.2-2.5-3.7V76.6L201.8,76.6z"/>
<path class="st0" d="M216.3,87.5l4.1-10c1.3-3.1,1.8-4.3,3.5-4.5v-0.5h-6V73c2.4,0.4,3,0.3,1,5.5l-1.7,4.1l-2.6-6.3
	c-1.2-2.8-1.1-2.8,1.1-3.3v-0.5h-6.8V73c1.5,0.5,1.5,0.4,2.5,2.5L216.3,87.5L216.3,87.5z"/>
<path class="st0" d="M234.5,79.2c1.7,0,2.6,0,2.9,1.8h0.5c-0.1-1.6,0-3.2,0.1-4.8h-0.5c-0.5,1.7-1.3,1.9-3,1.9h-1.6v-4.9h1.4
	c2.1,0,3.8,0,3.9,2.5h0.6l0.4-3.3h-11.3v0.5c2.3,0.4,2.5,0.2,2.5,3.7v4.5c0,3.4-0.2,3.3-2.5,3.7v0.5h11.5c0.5-1.4,0.7-2.9,0.7-4.4
	h-0.6c-0.5,2.2-1.6,3.6-4.1,3.6s-2.6-0.9-2.6-2.8v-2.5H234.5L234.5,79.2z"/>
<path class="st0" d="M283.9,76.6c0-3.4,0.2-3.3,2.5-3.7v-0.5h-7.5v0.5c2.3,0.4,2.5,0.2,2.5,3.7v4.5c0,3.4-0.2,3.3-2.5,3.7v0.5h7.5
	v-0.5c-2.3-0.4-2.5-0.2-2.5-3.7V76.6L283.9,76.6z"/>
<path class="st0" d="M292,76.2c0.8-2.7,2.2-3,4.8-3v7.9c0,3.4-0.2,3.3-2.9,3.7v0.5h8.2v-0.5c-2.6-0.4-2.9-0.2-2.9-3.7v-7.9
	c2.6,0,4,0.3,4.8,3l0.5-0.1l-0.4-3.7h-12.3l-0.4,3.7L292,76.2L292,76.2z"/>
<path class="st0" d="M315.7,79.9l0.3-0.7l2.2-4c0.6-1.2,1.8-2,3.2-2.2v-0.5h-5.5V73c1.7,0.4,2,0.6,0.4,3.9l-1,2.1l-1.7-3.5
	c-1.1-2.3-0.5-2.2,0.9-2.5v-0.5h-6.6V73c2.1,0.4,2.4,1.3,3.2,3l2.1,4.3v0.9c0,3.4-0.2,3.3-2.8,3.7v0.5h8v-0.5
	c-2.9-0.2-2.8-1.1-2.8-3.7L315.7,79.9L315.7,79.9L315.7,79.9z"/>
<path class="st0" d="M268.5,85.7c2.4,0,5-1.1,5-3.9c0-4-6.3-3.8-6.3-6.9c0-1.1,0.8-2,1.8-2c0,0,0,0,0.1,0c2,0,2.4,1.7,2.8,3.3h0.6
	l0.2-3.3c-1-0.6-2.1-0.9-3.2-0.9c-2.3,0-4.7,1.4-4.7,3.9c0,3.8,6.3,3.5,6.3,6.7c0,1.1-0.9,2.1-2.1,2.1c0,0-0.1,0-0.1,0
	c-2.2,0-3.6-2.1-4.3-4l-0.6,0.1l0.7,3.6C265.8,85.3,267.1,85.7,268.5,85.7L268.5,85.7L268.5,85.7z"/>
<path class="st0" d="M302.7,23.9c-9.2,0-12.9,9-12.9,16.3c0,8.3,4.4,18.9,14.1,18.9c8.9,0,12.8-9,12.8-16.7
	C316.4,32.9,310.9,23.9,302.7,23.9C302.7,23.9,302.7,23.9,302.7,23.9z M303.1,21.6c14.5,0,20.8,9.9,20.8,19.9
	c0,12.2-8.8,19.9-20.7,19.9s-20.7-7.8-20.7-20C282.4,29.4,291.3,21.6,303.1,21.6L303.1,21.6L303.1,21.6z"/>
<path class="st0" d="M172.5,23.9c-9.2,0-12.9,9-12.9,16.3c0,8.3,4.4,18.9,14.1,18.9c8.9,0,12.8-9,12.8-16.7
	C186.3,32.9,180.7,23.9,172.5,23.9L172.5,23.9L172.5,23.9z M173,21.6c14.5,0,20.8,9.9,20.8,19.9c0,12.2-8.8,19.9-20.7,19.9
	s-20.7-7.8-20.7-20C152.3,29.4,161.1,21.6,173,21.6L173,21.6L173,21.6z"/>
<path class="st0" d="M268.3,31.5c0.2-5.8,0.2-7.6,7-8.5v-0.9h-19.1V23c6.8,0.9,6.9,2.6,7,8.5v20c-0.2,5.9-0.2,7.6-7,8.5v0.9h19.1V60
	c-6.8-0.9-6.9-2.6-7-8.5L268.3,31.5L268.3,31.5L268.3,31.5z"/>
<path class="st0" d="M213,31.5v6.3h22.6v-6.3c-0.2-5.8-0.2-7.6-7-8.5v-0.9h19.1V23c-6.8,0.9-6.9,2.6-7,8.5v20c0.2,5.9,0.2,7.6,7,8.5
	v0.9h-19.1V60c6.8-0.9,6.9-2.6,7-8.5V41.3H213v10.2c0.2,5.9,0.2,7.6,7,8.5v0.9h-19.1V60c6.8-0.9,6.9-2.6,7-8.5v-20
	c-0.2-5.8-0.2-7.6-7-8.5v-0.9H220V23C213.2,24,213.2,25.7,213,31.5L213,31.5z"/>
</svg>
